<svg height="355.375567" viewBox="0 0 657.86859 830.54211" width="281.392446" xmlns="http://www.w3.org/2000/svg" xmlns:xlink="http://www.w3.org/1999/xlink"><clipPath id="a"><path d="m34.02 354.33h34.011v45.351h-34.011z"/></clipPath><g clip-path="url(#a)" transform="matrix(19.04879625 0 0 -19.04879625 -643.0400525 7618.4419325)"><path d="m0 0c2.92 4.074 11.254 5.567 14.241 6.314 2.988.747 2.767 2.886 2.767 2.886v33.88h-34.016v-33.88s-.221-2.139 2.767-2.886c2.987-.747 11.321-2.24 14.241-6.314" fill="#004ea2" transform="translate(51.0235 356.6052)"/><path d="m0 0c-2.996 3.345-9.362 4.818-12.876 5.631-.463.107-.863.2-1.197.283-2.376.594-2.332 2.087-2.319 2.256 0 0 0-.003 0-.008l.003.031v.03 33.28.006h32.827v-33.286-.03l.003-.031v.008c.013-.169.057-1.662-2.319-2.256-.334-.083-.734-.176-1.197-.283-3.523-.815-9.914-2.294-12.9-5.658z" fill="none" stroke="#fff" stroke-width=".424" transform="translate(50.9989 357.582)"/><path d="m0 0 5.143 11.016-5.143-3.259-5.143 3.259z" fill="#fff" transform="translate(51.0235 378.3148)"/><path d="m0 0 2.393 1.358-2.393-2.444-2.393 2.444z" fill="#004ea2" transform="translate(51.0235 385.5286)"/><path d="m0 0 5.143-11.016-5.143 3.259-5.143-3.259z" fill="#fff" transform="translate(51.0235 378.3148)"/><path d="m0 0 2.393-1.358-2.393 2.444-2.393-2.444z" fill="#004ea2" transform="translate(51.0235 371.1009)"/><path d="m0 0-11.016 5.143 3.259-5.143-3.259-5.143z" fill="#fff" transform="translate(51.0235 378.3148)"/><path d="m0 0-1.358 2.393 2.444-2.393-2.444-2.393z" fill="#004ea2" transform="translate(43.8096 378.3148)"/><path d="m0 0 11.016 5.143-3.259-5.143 3.259-5.143z" fill="#fff" transform="translate(51.0235 378.3148)"/><path d="m0 0 1.358 2.393-2.444-2.393 2.444-2.393z" fill="#004ea2" transform="translate(58.2374 378.3148)"/><path d="m0 0c2.837 0 5.137 2.3 5.137 5.137s-2.3 5.137-5.137 5.137-5.137-2.3-5.137-5.137 2.3-5.137 5.137-5.137" fill="#004ea2" transform="translate(51.0235 373.1779)"/><path d="m0 0c2.32 0 4.201 1.881 4.201 4.201s-1.881 4.201-4.201 4.201-4.201-1.881-4.201-4.201 1.881-4.201 4.201-4.201" fill="#fff" transform="translate(51.0235 374.114)"/><path d="m0 0c2.081 0 3.769 1.687 3.769 3.769 0 2.081-1.688 3.768-3.769 3.768s-3.769-1.687-3.769-3.768c0-2.082 1.688-3.769 3.769-3.769" fill="#004ea2" transform="translate(51.0235 374.5462)"/><g fill="#fff"><path d="m0 0-.204-.73-.611-.085.17.289z" transform="translate(48.9017 381.4719)"/><path d="m0 0-1.069-1.46.78-1.629 1.579.441-.017 2.003z" transform="translate(48.732 379.6219)"/><path d="m0 0 .357-1.171 1.052.356.984-.305.527 1.069-.696.255v1.052h-1.46v-1.018z" transform="translate(49.6147 376.4138)"/><path d="m0 0h-.645l-.017.9-.679.356.73 1.052.832-.305.815.255.661-1.138-.763-.339v-.781z" transform="translate(51.0235 378.3148)"/><path d="m0 0v-1.918l1.426-.441.798 1.323-.781 1.63z" transform="translate(52.2626 378.8242)"/><path d="m0 0 .102-.951-.323.476z" transform="translate(54.7917 379.0447)"/><path d="m0 0 .017-.509.458-.085z" transform="translate(53.8243 380.9288)"/><path d="m0 0-.187.051v-.204l-.492-.221.662-1.035.526.17.357-.611.22.543-.882.39z" transform="translate(53.3319 381.1326)"/><path d="m0 0 .17-.713-.509-.645.033.917z" transform="translate(47.5438 379.5369)"/><path d="m0 0 .306-.662-.255-.373-.187.763z" transform="translate(47.3572 378.0942)"/><path d="m0 0 .357-.628.797.119.391-1.205-.136-.119-.679.424-.662.645-.272.442z" transform="translate(47.9173 376.7871)"/><path d="m0 0 1.307.475 1.137-.475-.509-.204-1.273-.017z" transform="translate(49.7673 374.7842)"/><path d="m0 0-.339-.679 1.459-.594 1.358.492-.22.628-.832.306-.713.017z" transform="translate(50.1578 381.9643)"/><path d="m0 0 .577 1.104.679-.17.424.628.119-.153-.39-.594-.407-.441-.578-.425-.237-.085z" transform="translate(52.5342 375.0557)"/><path d="m0 0 .238-.815.526.611.543-.22.662.95-.492.306.085.271-.255.068-.289-.984z" transform="translate(47.9003 380.2669)"/></g><path d="m0 0 .238-1.052-.408-.594.374-.815-.238-.357m.051-.305.306.356.441-.73.73.17.509-1.493-.051-.136m.628 2.97h1.765v-1.103l.73-.289-.662-1.307-.984.357-1.189-.374-.441 1.443.764.289zm2.274-2.97-.186.186.713 1.307.679-.152 1.018 1.612-.356.696.339.815m-.102.373-.373-.798-.407.798-.561-.204-.848 1.375.509.238-.068.221.526.017m.136-.238.119-.781.73-.288m-5.296 1.459-.272-.882-.882-.119m-.204-.289.373-1.069.611.747.577-.221.832 1.222-.543.306.085.322-.475.119m.288-2.054.747-.441.034-1.035h1.799l.051.882.9.425-.815 1.358-.934-.272-.865.357-.917-1.274z" fill="none" stroke="#fff" stroke-width=".085" transform="translate(47.6458 379.7915)"/><path d="m0 0c-2.148 0-3.889-1.741-3.889-3.889 0-2.147 1.741-3.888 3.889-3.888s3.889 1.741 3.889 3.888c0 2.148-1.741 3.889-3.889 3.889m0-7.597c-2.048 0-3.709 1.66-3.709 3.708 0 2.049 1.661 3.709 3.709 3.709s3.709-1.66 3.709-3.709c0-2.048-1.661-3.708-3.709-3.708" fill="#004ea2" transform="translate(51.0235 382.2035)"/><path d="m66.656 398.361h-31.368v-5.839h31.368z" fill="#fff"/><path d="m0 0 1.78-3.285-.832-.168-.337.707h-1.255l-.332-.707-.794.168 1.76 3.285zm-.447-2.136h.875l-.438.808z" fill="#004ea2" transform="translate(37.6656 397.1206)"/><path d="m0 0 .563.553.562-.553-.562-.553z" fill="#004ea2" transform="translate(39.6196 394.2299)"/><path d="m0 0 .818.077v-2.217c0-.746-.404-1.237-1.169-1.237-.101 0-.207 0-.303.034l-.197.818c.11-.043.235-.058.356-.058.408 0 .495.212.495.606z" fill="#004ea2" transform="translate(41.8896 397.0437)"/><path d="m0 0 .563.553.563-.553-.563-.553z" fill="#004ea2" transform="translate(43.3088 394.2299)"/><path d="m0 0 1.78-3.285-.832-.168-.337.707h-1.255l-.332-.707-.794.168 1.76 3.285zm-.447-2.136h.875l-.438.808z" fill="#004ea2" transform="translate(46.3821 397.1206)"/><path d="m0 0c0-.77-.601-1.222-1.428-1.222-.77 0-1.309.361-1.309 1.164v2.213l.818.077v-2.059c0-.351.101-.644.51-.644.529 0 .591.37.591.822v1.804l.818.077z" fill="#004ea2" transform="translate(51.2025 394.8889)"/><path d="m0 0-.991 1.424.808.24.674-1.02.663 1.02.78-.269-.977-1.381 1.053-1.534-.832-.269-.707 1.116-.741-1.116-.783.288z" fill="#004ea2" transform="translate(52.6709 395.4564)"/><path d="m0 0v3.3h1.866l.144-.698h-1.192v-.572h.851v-.698h-.851v-.635h1.293l-.202-.697z" fill="#004ea2" transform="translate(55.1146 393.7441)"/><path d="m0 0h.928c.77 0 1.333-.269 1.333-1.02 0-.341-.198-.712-.534-.837l.889-1.255-.827-.265-.962 1.559h-.009v-1.443l-.818-.077zm.818-1.621c.351-.024.625.091.625.481 0 .394-.289.457-.625.443z" fill="#004ea2" transform="translate(57.684 397.0437)"/><path d="m0 0h.928c.77 0 1.333-.269 1.333-1.02 0-.341-.198-.712-.534-.837l.889-1.255-.827-.265-.962 1.559h-.009v-1.443l-.818-.077zm.818-1.621c.351-.024.625.091.625.481 0 .394-.289.457-.625.443z" fill="#004ea2" transform="translate(60.5994 397.0437)"/><path d="m0 0v3.3h1.866l.144-.698h-1.192v-.572h.851v-.698h-.851v-.635h1.294l-.202-.697z" fill="#004ea2" transform="translate(63.5916 393.7441)"/></g></svg>